<?xml version="1.0" standalone="no"?>
<!DOCTYPE svg PUBLIC "-//W3C//DTD SVG 20010904//EN"
 "http://www.w3.org/TR/2001/REC-SVG-20010904/DTD/svg10.dtd">
<svg version="1.0" xmlns="http://www.w3.org/2000/svg"
 width="256.000000pt" height="256.000000pt" viewBox="0 0 256.000000 256.000000"
 preserveAspectRatio="xMidYMid meet">
<metadata>
Created by potrace 1.14, written by Peter Selinger 2001-2017
</metadata>
<g transform="translate(0.000000,256.000000) scale(0.100000,-0.100000)"
fill="#000000" stroke="none">
<path d="M2164 2050 c-80 -40 -102 -75 -299 -490 -295 -620 -287 -605 -335
-624 -35 -14 -102 -16 -545 -16 -489 0 -506 -1 -525 -20 -28 -28 -25 -106 6
-137 21 -21 32 -23 111 -23 l88 0 -30 -19 c-70 -43 -95 -91 -95 -180 0 -70 31
-136 79 -168 48 -32 144 -32 192 0 119 79 99 304 -31 356 -17 7 68 10 285 10
306 1 310 1 280 -18 -70 -43 -95 -91 -95 -180 0 -70 31 -136 79 -168 26 -18
48 -23 96 -23 77 0 120 25 153 90 19 37 23 57 20 117 -3 62 -7 77 -34 110 -17
21 -45 45 -62 54 l-32 16 45 6 c57 8 111 36 152 79 21 22 110 196 264 518 133
278 243 497 259 514 24 25 38 29 110 37 105 10 120 22 120 99 0 31 -5 61 -12
68 -8 8 -47 12 -107 12 -76 0 -105 -4 -137 -20z m-1430 -1509 c7 -11 -14 -20
-31 -13 -7 2 -13 8 -13 13 0 12 37 12 44 0z m710 0 c7 -11 -14 -20 -31 -13 -7
2 -13 8 -13 13 0 12 37 12 44 0z"/>
<path d="M198 1905 c-39 -22 -48 -45 -47 -122 1 -67 2 -71 162 -393 224 -451
177 -423 709 -418 392 3 389 3 466 72 22 20 52 62 67 94 244 515 275 588 275
650 0 54 -4 66 -29 94 l-29 33 -774 2 c-668 2 -777 0 -800 -12z m1462 -170 c0
-2 -55 -124 -123 -270 -98 -213 -129 -270 -152 -285 -28 -19 -50 -20 -385 -20
-340 0 -356 1 -388 20 -29 18 -53 60 -163 286 -71 146 -129 267 -129 270 0 2
301 4 670 4 369 0 670 -2 670 -5z"/>
</g>
</svg>
